<svg xmlns="http://www.w3.org/2000/svg" width="100" height="100" fill="none" viewBox="0 0 100 100"><defs><linearGradient id="uae-accent-grad" x1="0%" x2="100%" y1="0%" y2="100%"><stop offset="0%" stop-color="#2DD4BF"/><stop offset="100%" stop-color="#3B82F6"/></linearGradient></defs><path stroke="url(#uae-accent-grad)" stroke-width="2.5" d="M30 80V30C30 25 35 22 40 22H60C65 22 70 25 70 30V80"/><rect width="4" height="4" x="38" y="30" fill="url(#uae-accent-grad)" opacity=".4" rx="1"/><rect width="4" height="4" x="48" y="30" fill="url(#uae-accent-grad)" opacity=".4" rx="1"/><rect width="4" height="4" x="58" y="30" fill="url(#uae-accent-grad)" opacity=".4" rx="1"/><rect width="50" height="18" x="25" y="55" fill="url(#uae-accent-grad)" rx="4"/><rect width="10" height="6" x="30" y="59" fill="#000" rx="1.5"/><rect width="10" height="6" x="45" y="59" fill="#000" rx="1.5"/><rect width="10" height="6" x="60" y="59" fill="#000" rx="1.5"/><rect width="70" height="2" x="15" y="78" fill="#fff" fill-opacity=".3" rx="1"/></svg>