<svg width="100" height="100" viewBox="0 0 100 100" fill="none" xmlns="http://www.w3.org/2000/svg">
  <defs>
    <linearGradient id="uae-accent-grad" x1="0%" y1="0%" x2="100%" y2="100%">
      <stop offset="0%" stop-color="#2DD4BF" />
      <stop offset="100%" stop-color="#3B82F6" />
    </linearGradient>
  </defs>

  <path d="M30 80V30C30 25 35 22 40 22H60C65 22 70 25 70 30V80" stroke="url(#uae-accent-grad)" stroke-width="2.5" />
  <rect x="38" y="30" width="4" height="4" rx="1" fill="url(#uae-accent-grad)" opacity="0.4" />
  <rect x="48" y="30" width="4" height="4" rx="1" fill="url(#uae-accent-grad)" opacity="0.4" />
  <rect x="58" y="30" width="4" height="4" rx="1" fill="url(#uae-accent-grad)" opacity="0.4" />

  <rect x="25" y="55" width="50" height="18" rx="4" fill="url(#uae-accent-grad)" />
  <rect x="30" y="59" width="10" height="6" rx="1.5" fill="black" />
  <rect x="45" y="59" width="10" height="6" rx="1.5" fill="black" />
  <rect x="60" y="59" width="10" height="6" rx="1.5" fill="black" />
  
  <rect x="15" y="78" width="70" height="2" rx="1" fill="white" fill-opacity="0.3" />
</svg>